<mxfile host="app.diagrams.net" modified="2023-02-13T09:42:19.147Z" agent="5.0 (Macintosh; Intel Mac OS X 10_15_7) AppleWebKit/537.36 (KHTML, like Gecko) Chrome/109.0.0.0 Safari/537.36" etag="BO21UAB7EOG0j_IiS4pi" version="20.8.20" type="github">
  <diagram name="Страница 1" id="nUjFrEZ2IgaxzXM1tB5H">
    <mxGraphModel dx="1194" dy="797" grid="1" gridSize="10" guides="1" tooltips="1" connect="1" arrows="1" fold="1" page="1" pageScale="1" pageWidth="827" pageHeight="1169" math="0" shadow="0">
      <root>
        <mxCell id="0" />
        <mxCell id="1" parent="0" />
        <mxCell id="zRRirbD4NSNAmznf2v_Z-1" value="product" style="swimlane;childLayout=stackLayout;horizontal=1;startSize=30;horizontalStack=0;rounded=1;fontSize=14;fontStyle=0;strokeWidth=2;resizeParent=0;resizeLast=1;shadow=0;dashed=0;align=center;" vertex="1" parent="1">
          <mxGeometry x="60" y="50" width="160" height="130" as="geometry" />
        </mxCell>
        <mxCell id="zRRirbD4NSNAmznf2v_Z-2" value="* vendor_code&#xa;name&#xa;description&#xa;price&#xa;photo&#xa;category_id" style="align=left;strokeColor=none;fillColor=none;spacingLeft=4;fontSize=12;verticalAlign=top;resizable=0;rotatable=0;part=1;" vertex="1" parent="zRRirbD4NSNAmznf2v_Z-1">
          <mxGeometry y="30" width="160" height="100" as="geometry" />
        </mxCell>
        <mxCell id="zRRirbD4NSNAmznf2v_Z-5" value="category" style="swimlane;childLayout=stackLayout;horizontal=1;startSize=30;horizontalStack=0;rounded=1;fontSize=14;fontStyle=0;strokeWidth=2;resizeParent=0;resizeLast=1;shadow=0;dashed=0;align=center;" vertex="1" parent="1">
          <mxGeometry x="20" y="235" width="160" height="90" as="geometry" />
        </mxCell>
        <mxCell id="zRRirbD4NSNAmznf2v_Z-6" value="* id&#xa;name&#xa;description" style="align=left;strokeColor=none;fillColor=none;spacingLeft=4;fontSize=12;verticalAlign=top;resizable=0;rotatable=0;part=1;" vertex="1" parent="zRRirbD4NSNAmznf2v_Z-5">
          <mxGeometry y="30" width="160" height="60" as="geometry" />
        </mxCell>
        <mxCell id="zRRirbD4NSNAmznf2v_Z-8" value="" style="edgeStyle=orthogonalEdgeStyle;fontSize=12;html=1;endArrow=ERmany;rounded=0;curved=1;exitX=0.5;exitY=0;exitDx=0;exitDy=0;entryX=0.25;entryY=1;entryDx=0;entryDy=0;" edge="1" parent="1" source="zRRirbD4NSNAmznf2v_Z-5" target="zRRirbD4NSNAmznf2v_Z-2">
          <mxGeometry width="100" height="100" relative="1" as="geometry">
            <mxPoint x="360" y="350" as="sourcePoint" />
            <mxPoint x="460" y="250" as="targetPoint" />
          </mxGeometry>
        </mxCell>
        <mxCell id="zRRirbD4NSNAmznf2v_Z-12" value="address" style="swimlane;childLayout=stackLayout;horizontal=1;startSize=30;horizontalStack=0;rounded=1;fontSize=14;fontStyle=0;strokeWidth=2;resizeParent=0;resizeLast=1;shadow=0;dashed=0;align=center;" vertex="1" parent="1">
          <mxGeometry x="620" y="390" width="160" height="140" as="geometry" />
        </mxCell>
        <mxCell id="zRRirbD4NSNAmznf2v_Z-13" value="* order_number&#xa;index&#xa;city&#xa;street&#xa;house&#xa;apartment" style="align=left;strokeColor=none;fillColor=none;spacingLeft=4;fontSize=12;verticalAlign=top;resizable=0;rotatable=0;part=1;" vertex="1" parent="zRRirbD4NSNAmznf2v_Z-12">
          <mxGeometry y="30" width="160" height="110" as="geometry" />
        </mxCell>
        <mxCell id="zRRirbD4NSNAmznf2v_Z-14" style="edgeStyle=orthogonalEdgeStyle;rounded=0;orthogonalLoop=1;jettySize=auto;html=1;exitX=0.5;exitY=1;exitDx=0;exitDy=0;" edge="1" parent="zRRirbD4NSNAmznf2v_Z-12" source="zRRirbD4NSNAmznf2v_Z-13" target="zRRirbD4NSNAmznf2v_Z-13">
          <mxGeometry relative="1" as="geometry" />
        </mxCell>
        <mxCell id="zRRirbD4NSNAmznf2v_Z-15" value="contact" style="swimlane;childLayout=stackLayout;horizontal=1;startSize=30;horizontalStack=0;rounded=1;fontSize=14;fontStyle=0;strokeWidth=2;resizeParent=0;resizeLast=1;shadow=0;dashed=0;align=center;labelBackgroundColor=#FFFFFF;labelBorderColor=none;" vertex="1" parent="1">
          <mxGeometry x="400" y="390" width="160" height="130" as="geometry">
            <mxRectangle x="10" y="-1070" width="70" height="30" as="alternateBounds" />
          </mxGeometry>
        </mxCell>
        <mxCell id="zRRirbD4NSNAmznf2v_Z-16" value="* order_number&#xa;email&#xa;name&#xa;surname&#xa;patronymic&#xa;phone" style="align=left;strokeColor=none;fillColor=none;spacingLeft=4;fontSize=12;verticalAlign=top;resizable=0;rotatable=0;part=1;labelBackgroundColor=#FFFFFF;labelBorderColor=none;" vertex="1" parent="zRRirbD4NSNAmznf2v_Z-15">
          <mxGeometry y="30" width="160" height="100" as="geometry" />
        </mxCell>
        <mxCell id="zRRirbD4NSNAmznf2v_Z-17" value="ordered_product" style="swimlane;childLayout=stackLayout;horizontal=1;startSize=30;horizontalStack=0;rounded=1;fontSize=14;fontStyle=0;strokeWidth=2;resizeParent=0;resizeLast=1;shadow=0;dashed=0;align=center;" vertex="1" parent="1">
          <mxGeometry x="480" y="50" width="160" height="110" as="geometry" />
        </mxCell>
        <mxCell id="zRRirbD4NSNAmznf2v_Z-18" value="* order&#xa;* product_code&#xa;quantity&#xa;final_price&#xa;subtotal" style="align=left;strokeColor=none;fillColor=none;spacingLeft=4;fontSize=12;verticalAlign=top;resizable=0;rotatable=0;part=1;" vertex="1" parent="zRRirbD4NSNAmznf2v_Z-17">
          <mxGeometry y="30" width="160" height="80" as="geometry" />
        </mxCell>
        <mxCell id="zRRirbD4NSNAmznf2v_Z-19" value="" style="edgeStyle=entityRelationEdgeStyle;fontSize=12;html=1;endArrow=ERzeroToMany;startArrow=ERmandOne;rounded=0;curved=1;exitX=1;exitY=0.25;exitDx=0;exitDy=0;entryX=0;entryY=0.25;entryDx=0;entryDy=0;" edge="1" parent="1" source="zRRirbD4NSNAmznf2v_Z-2" target="zRRirbD4NSNAmznf2v_Z-18">
          <mxGeometry width="100" height="100" relative="1" as="geometry">
            <mxPoint x="330" y="310" as="sourcePoint" />
            <mxPoint x="240" y="360" as="targetPoint" />
          </mxGeometry>
        </mxCell>
        <mxCell id="zRRirbD4NSNAmznf2v_Z-20" value="order" style="swimlane;childLayout=stackLayout;horizontal=1;startSize=30;horizontalStack=0;rounded=1;fontSize=14;fontStyle=0;strokeWidth=2;resizeParent=0;resizeLast=1;shadow=0;dashed=0;align=center;" vertex="1" parent="1">
          <mxGeometry x="480" y="210" width="160" height="140" as="geometry" />
        </mxCell>
        <mxCell id="zRRirbD4NSNAmznf2v_Z-21" value="* number&#xa;date&#xa;user&#xa;address&#xa;total_sum&#xa;payment_method&#xa;paid" style="align=left;strokeColor=none;fillColor=none;spacingLeft=4;fontSize=12;verticalAlign=top;resizable=0;rotatable=0;part=1;" vertex="1" parent="zRRirbD4NSNAmznf2v_Z-20">
          <mxGeometry y="30" width="160" height="110" as="geometry" />
        </mxCell>
        <mxCell id="zRRirbD4NSNAmznf2v_Z-22" style="edgeStyle=orthogonalEdgeStyle;rounded=0;orthogonalLoop=1;jettySize=auto;html=1;exitX=0.5;exitY=1;exitDx=0;exitDy=0;" edge="1" parent="zRRirbD4NSNAmznf2v_Z-20" source="zRRirbD4NSNAmznf2v_Z-21" target="zRRirbD4NSNAmznf2v_Z-21">
          <mxGeometry relative="1" as="geometry" />
        </mxCell>
        <mxCell id="zRRirbD4NSNAmznf2v_Z-23" value="" style="edgeStyle=orthogonalEdgeStyle;fontSize=12;html=1;endArrow=ERoneToMany;startArrow=ERmandOne;rounded=0;curved=1;exitX=0.5;exitY=0;exitDx=0;exitDy=0;entryX=0.5;entryY=1;entryDx=0;entryDy=0;" edge="1" parent="1" source="zRRirbD4NSNAmznf2v_Z-20" target="zRRirbD4NSNAmznf2v_Z-18">
          <mxGeometry width="100" height="100" relative="1" as="geometry">
            <mxPoint x="560" y="280" as="sourcePoint" />
            <mxPoint x="560" y="350" as="targetPoint" />
          </mxGeometry>
        </mxCell>
        <mxCell id="zRRirbD4NSNAmznf2v_Z-27" value="1-50" style="edgeLabel;html=1;align=center;verticalAlign=middle;resizable=0;points=[];" vertex="1" connectable="0" parent="zRRirbD4NSNAmznf2v_Z-23">
          <mxGeometry x="0.7091" y="3" relative="1" as="geometry">
            <mxPoint x="23" y="2" as="offset" />
          </mxGeometry>
        </mxCell>
        <mxCell id="zRRirbD4NSNAmznf2v_Z-28" value="leftovers" style="swimlane;childLayout=stackLayout;horizontal=1;startSize=30;horizontalStack=0;rounded=1;fontSize=14;fontStyle=0;strokeWidth=2;resizeParent=0;resizeLast=1;shadow=0;dashed=0;align=center;" vertex="1" parent="1">
          <mxGeometry x="220" y="235" width="160" height="130" as="geometry" />
        </mxCell>
        <mxCell id="zRRirbD4NSNAmznf2v_Z-29" value="* product_code&#xa;* date&#xa;quantity_left&#xa;quantity_ordered&#xa;quatity_booked&#xa;availability" style="align=left;strokeColor=none;fillColor=none;spacingLeft=4;fontSize=12;verticalAlign=top;resizable=0;rotatable=0;part=1;" vertex="1" parent="zRRirbD4NSNAmznf2v_Z-28">
          <mxGeometry y="30" width="160" height="100" as="geometry" />
        </mxCell>
        <mxCell id="zRRirbD4NSNAmznf2v_Z-30" value="" style="edgeStyle=orthogonalEdgeStyle;fontSize=12;html=1;endArrow=ERmandOne;startArrow=ERmandOne;rounded=0;entryX=0;entryY=0.5;entryDx=0;entryDy=0;exitX=0.25;exitY=0;exitDx=0;exitDy=0;curved=1;" edge="1" parent="1" source="zRRirbD4NSNAmznf2v_Z-15" target="zRRirbD4NSNAmznf2v_Z-21">
          <mxGeometry width="100" height="100" relative="1" as="geometry">
            <mxPoint x="360" y="350" as="sourcePoint" />
            <mxPoint x="460" y="250" as="targetPoint" />
          </mxGeometry>
        </mxCell>
        <mxCell id="zRRirbD4NSNAmznf2v_Z-31" value="" style="edgeStyle=orthogonalEdgeStyle;fontSize=12;html=1;endArrow=ERmandOne;startArrow=ERmandOne;rounded=0;entryX=1;entryY=0.5;entryDx=0;entryDy=0;exitX=0.5;exitY=0;exitDx=0;exitDy=0;curved=1;" edge="1" parent="1" source="zRRirbD4NSNAmznf2v_Z-12" target="zRRirbD4NSNAmznf2v_Z-21">
          <mxGeometry width="100" height="100" relative="1" as="geometry">
            <mxPoint x="690" y="355" as="sourcePoint" />
            <mxPoint x="730" y="260" as="targetPoint" />
          </mxGeometry>
        </mxCell>
        <mxCell id="zRRirbD4NSNAmznf2v_Z-32" value="" style="edgeStyle=orthogonalEdgeStyle;fontSize=12;html=1;endArrow=ERoneToMany;startArrow=ERmandOne;rounded=0;exitX=1;exitY=0.75;exitDx=0;exitDy=0;entryX=0.5;entryY=0;entryDx=0;entryDy=0;curved=1;" edge="1" parent="1" source="zRRirbD4NSNAmznf2v_Z-2" target="zRRirbD4NSNAmznf2v_Z-28">
          <mxGeometry width="100" height="100" relative="1" as="geometry">
            <mxPoint x="270" y="220" as="sourcePoint" />
            <mxPoint x="370" y="120" as="targetPoint" />
          </mxGeometry>
        </mxCell>
      </root>
    </mxGraphModel>
  </diagram>
</mxfile>
